<svg id="_5" data-name="5" xmlns="http://www.w3.org/2000/svg" xmlns:xlink="http://www.w3.org/1999/xlink" viewBox="0 0 539.85 624.2"><defs><style>.cls-1,.cls-2{fill-rule:evenodd;}.cls-1{fill:url(#Gradiente_sem_nome_39);}.cls-2{fill:url(#Gradiente_sem_nome_46);}.cls-3{fill:url(#Gradiente_sem_nome_53);}</style><linearGradient id="Gradiente_sem_nome_39" x1="388.2" y1="353.04" x2="388.2" y2="626.69" gradientUnits="userSpaceOnUse"><stop offset="0" stop-color="#fff"/><stop offset="1" stop-color="#fff"/></linearGradient><linearGradient id="Gradiente_sem_nome_46" x1="154.66" y1="271.47" x2="673.26" y2="271.47" gradientUnits="userSpaceOnUse"><stop offset="0" stop-color="#b0d137"/><stop offset="0.5" stop-color="#b0d137"/><stop offset="1" stop-color="#b0d137"/></linearGradient><linearGradient id="Gradiente_sem_nome_53" x1="167.29" y1="257.89" x2="642.56" y2="257.89" gradientUnits="userSpaceOnUse"><stop offset="0" stop-color="#b0d137"/><stop offset="1" stop-color="#b0d137"/></linearGradient></defs><title>S SWAP BRANCO</title><path class="cls-1" d="M358.7,283.61c20.34,29.95,48.22,59,66.68,79.3,8.66,9.79,17.51,19.4,26,29.2,26.92,31.26,70.44,86.64,68.37,129.59a57.45,57.45,0,0,1-.94,7.91c-3.39,20.34-15.64,35.22-33.72,45-23.73,12.81-53.49,14.88-79.87,13.56-32.77-1.69-66.87-10-90.6-33.9-13.37-13.56-21.66-29.95-26.18-48.41l-3.77-15.63,31.46-.19-91.92-90.79-90.79,91.92,30.7-.19,1.51,11.11c6,42.76,21.28,82.88,52.74,113.39,43.7,42.38,108.31,56,167.26,59,62.54,3.2,133.36-3,187.24-38.24,45.39-29.57,67-72.14,69.88-126,1.13-22.79-1.89-45.21-10.55-66.3a144,144,0,0,0-37.86-53.12c-11.68-10.55-31.46-20.34-45.59-27.32-29-13.93-59.52-26-89.84-37.29l-6-2.26-30.14-11.3c-16.76-6.22-41.63-16-64-29Z" transform="translate(-133.42 -51)"/><path class="cls-2" d="M429,217.49l47.66-.37A71.27,71.27,0,0,0,458,190.37c-15.63-13.94-39.17-21.85-70.07-23.36-24.67-1.32-45,2.83-61,12.25-14.51,8.47-22.8,19.58-24.87,33.15a36.26,36.26,0,0,0-.38,4.52c-1.88,37.48,39.56,88.72,62.73,115.28C410.12,385,467,438.44,483,491.94a39.06,39.06,0,0,0-16-17.52c-10.93-6.4-37.68-17.33-80.43-32.21s-78.93-29-108.12-42.57c-42.2-19.21-74-43.51-94.94-72.71s-30.52-62.53-28.63-100q4.25-85.89,71.2-133.36c44.64-31.64,104-45.58,177.44-42q108.21,5.37,169,62,45.21,41.82,54.25,102.65l46.52-.18L552,338.8Z" transform="translate(-133.42 -51)"/><path class="cls-3" d="M449.11,452c-18.08-27.5-42.57-53.86-61.59-74.77-10.93-12.06-22-24.12-32.78-36.55-26.37-30.32-68-82.5-65.92-124.51q.27-2.82.56-5.64c3-18.84,14.69-32.78,30.89-42.2,20.72-12.06,44.83-15.25,68.19-14.12,27.5,1.5,56.89,7.91,78.17,26.74a84.77,84.77,0,0,1,21.85,31.27l7.35,17.52-36,.37,91.92,90.8L642.56,229l-26.75.19-1.69-10.92c-5.65-37.86-22.42-69.32-50.3-95.31C520.12,82.06,461.17,67.18,403,64.35c-58.59-3-120.56,4.9-169.53,39.56-42.57,30.14-63.29,71.77-65.93,123.76-1.7,33.71,6.59,64.42,26.37,91.73,22.41,31.08,55.57,52.93,89.85,68.75,34.85,15.82,70.83,29.57,107,42,17.7,6.21,35.41,12.62,52.74,19.59a34.62,34.62,0,0,1,5.65,2.25Z" transform="translate(-133.42 -51)"/></svg>